QuixoticSixteen.ufo
<glyph name="exclam" format="2">
  <advance width="633"/>
  <unicode hex="0021"/>
  <outline>
    <contour>
      <point x="598.0" y="0.0" type="curve" smooth="yes"/>
      <point x="598.0" y="19.0"/>
      <point x="614.0" y="35.0"/>
      <point x="633.0" y="35.0" type="curve" smooth="yes"/>
      <point x="652.0" y="35.0"/>
      <point x="668.0" y="19.0"/>
      <point x="668.0" y="0.0" type="curve" smooth="yes"/>
      <point x="668.0" y="-19.0"/>
      <point x="652.0" y="-35.0"/>
      <point x="633.0" y="-35.0" type="curve" smooth="yes"/>
      <point x="614.0" y="-35.0"/>
      <point x="598.0" y="-19.0"/>
    </contour>
    <contour>
      <point x="503.0" y="42.0" type="line" smooth="yes"/>
      <point x="475.0" y="70.0" type="line" smooth="yes"/>
      <point x="475.0" y="358.0" type="line" smooth="yes"/>
      <point x="503.0" y="386.0" type="line" smooth="yes"/>
      <point x="531.0" y="358.0" type="line" smooth="yes"/>
      <point x="531.0" y="70.0" type="line" smooth="yes"/>
    </contour>
    <contour>
      <point x="503.0" y="414.0" type="line" smooth="yes"/>
      <point x="475.0" y="442.0" type="line" smooth="yes"/>
      <point x="475.0" y="730.0" type="line" smooth="yes"/>
      <point x="503.0" y="758.0" type="line" smooth="yes"/>
      <point x="531.0" y="730.0" type="line" smooth="yes"/>
      <point x="531.0" y="442.0" type="line" smooth="yes"/>
    </contour>
  </outline>
</glyph>
<glyph name="quotesingle" format="2">
  <advance width="633"/>
  <unicode hex="0027"/>
  <outline>
    <contour>
      <point x="288.0" y="724.0" type="line" smooth="yes"/>
      <point x="344.0" y="724.0" type="line" smooth="yes"/>
      <point x="344.0" y="442.0" type="line" smooth="yes"/>
      <point x="316.0" y="414.0" type="line" smooth="yes"/>
      <point x="288.0" y="442.0" type="line" smooth="yes"/>
    </contour>
  </outline>
</glyph>
<glyph name="comma" format="2">
  <advance width="633"/>
  <unicode hex="002C"/>
  <outline>
    <contour>
      <point x="178.0" y="76.0" type="line" smooth="yes"/>
      <point x="178.0" y="183.0" type="line" smooth="yes"/>
      <point x="258.0" y="352.0" type="line" smooth="yes"/>
      <point x="268.0" y="352.0" type="line" smooth="yes"/>
      <point x="268.0" y="245.0" type="line" smooth="yes"/>
      <point x="188.0" y="76.0" type="line" smooth="yes"/>
    </contour>
  </outline>
</glyph>
<glyph name="hyphen" format="2">
  <advance width="633"/>
  <unicode hex="002D"/>
  <outline>
    <contour>
      <point x="330.0" y="400.0" type="line" smooth="yes"/>
      <point x="358.0" y="428.0" type="line" smooth="yes"/>
      <point x="460.0" y="428.0" type="line" smooth="yes"/>
      <point x="488.0" y="400.0" type="line" smooth="yes"/>
      <point x="460.0" y="372.0" type="line" smooth="yes"/>
      <point x="358.0" y="372.0" type="line" smooth="yes"/>
    </contour>
    <contour>
      <point x="144.0" y="400.0" type="line" smooth="yes"/>
      <point x="172.0" y="428.0" type="line" smooth="yes"/>
      <point x="274.0" y="428.0" type="line" smooth="yes"/>
      <point x="302.0" y="400.0" type="line" smooth="yes"/>
      <point x="274.0" y="372.0" type="line" smooth="yes"/>
      <point x="172.0" y="372.0" type="line" smooth="yes"/>
    </contour>
  </outline>
</glyph>
<glyph name="period" format="2">
  <advance width="633"/>
  <unicode hex="002E"/>
  <outline>
    <contour>
      <point x="144.0" y="28.0" type="line" smooth="yes"/>
      <point x="172.0" y="56.0" type="line" smooth="yes"/>
      <point x="306.0" y="56.0" type="line" smooth="yes"/>
      <point x="306.0" y="0.0" type="line" smooth="yes"/>
      <point x="172.0" y="0.0" type="line" smooth="yes"/>
    </contour>
  </outline>
</glyph>
<glyph name="semicolon" format="2">
  <advance width="633"/>
  <unicode hex="003B"/>
  <outline>
    <contour>
      <point x="178.0" y="76.0" type="line" smooth="yes"/>
      <point x="178.0" y="183.0" type="line" smooth="yes"/>
      <point x="258.0" y="352.0" type="line" smooth="yes"/>
      <point x="268.0" y="352.0" type="line" smooth="yes"/>
      <point x="268.0" y="245.0" type="line" smooth="yes"/>
      <point x="188.0" y="76.0" type="line" smooth="yes"/>
    </contour>
    <contour>
      <point x="144.0" y="772.0" type="line" smooth="yes"/>
      <point x="172.0" y="800.0" type="line" smooth="yes"/>
      <point x="306.0" y="800.0" type="line" smooth="yes"/>
      <point x="306.0" y="744.0" type="line" smooth="yes"/>
      <point x="172.0" y="744.0" type="line" smooth="yes"/>
    </contour>
  </outline>
</glyph>
<glyph name="T" format="2">
  <advance width="633"/>
  <unicode hex="0054"/>
  <outline>
    <contour>
      <point x="489.0" y="772.0" type="line" smooth="yes"/>
      <point x="461.0" y="744.0" type="line" smooth="yes"/>
      <point x="327.0" y="744.0" type="line" smooth="yes"/>
      <point x="327.0" y="800.0" type="line" smooth="yes"/>
      <point x="461.0" y="800.0" type="line" smooth="yes"/>
    </contour>
    <contour>
      <point x="288.0" y="76.0" type="line" smooth="yes"/>
      <point x="288.0" y="358.0" type="line" smooth="yes"/>
      <point x="316.0" y="386.0" type="line" smooth="yes"/>
      <point x="344.0" y="358.0" type="line" smooth="yes"/>
      <point x="344.0" y="76.0" type="line" smooth="yes"/>
    </contour>
    <contour>
      <point x="288.0" y="724.0" type="line" smooth="yes"/>
      <point x="344.0" y="724.0" type="line" smooth="yes"/>
      <point x="344.0" y="442.0" type="line" smooth="yes"/>
      <point x="316.0" y="414.0" type="line" smooth="yes"/>
      <point x="288.0" y="442.0" type="line" smooth="yes"/>
    </contour>
    <contour>
      <point x="144.0" y="772.0" type="line" smooth="yes"/>
      <point x="172.0" y="800.0" type="line" smooth="yes"/>
      <point x="306.0" y="800.0" type="line" smooth="yes"/>
      <point x="306.0" y="744.0" type="line" smooth="yes"/>
      <point x="172.0" y="744.0" type="line" smooth="yes"/>
    </contour>
  </outline>
</glyph>
<glyph name="bracketleft" format="2">
  <advance width="633"/>
  <unicode hex="005B"/>
  <outline>
    <contour>
      <point x="489.0" y="28.0" type="line" smooth="yes"/>
      <point x="461.0" y="0.0" type="line" smooth="yes"/>
      <point x="327.0" y="0.0" type="line" smooth="yes"/>
      <point x="327.0" y="56.0" type="line" smooth="yes"/>
      <point x="461.0" y="56.0" type="line" smooth="yes"/>
    </contour>
    <contour>
      <point x="489.0" y="772.0" type="line" smooth="yes"/>
      <point x="461.0" y="744.0" type="line" smooth="yes"/>
      <point x="327.0" y="744.0" type="line" smooth="yes"/>
      <point x="327.0" y="800.0" type="line" smooth="yes"/>
      <point x="461.0" y="800.0" type="line" smooth="yes"/>
    </contour>
    <contour>
      <point x="288.0" y="76.0" type="line" smooth="yes"/>
      <point x="288.0" y="358.0" type="line" smooth="yes"/>
      <point x="316.0" y="386.0" type="line" smooth="yes"/>
      <point x="344.0" y="358.0" type="line" smooth="yes"/>
      <point x="344.0" y="76.0" type="line" smooth="yes"/>
    </contour>
    <contour>
      <point x="288.0" y="724.0" type="line" smooth="yes"/>
      <point x="344.0" y="724.0" type="line" smooth="yes"/>
      <point x="344.0" y="442.0" type="line" smooth="yes"/>
      <point x="316.0" y="414.0" type="line" smooth="yes"/>
      <point x="288.0" y="442.0" type="line" smooth="yes"/>
    </contour>
  </outline>
</glyph>
<glyph name="bracketright" format="2">
  <advance width="633"/>
  <unicode hex="005D"/>
  <outline>
    <contour>
      <point x="288.0" y="76.0" type="line" smooth="yes"/>
      <point x="288.0" y="358.0" type="line" smooth="yes"/>
      <point x="316.0" y="386.0" type="line" smooth="yes"/>
      <point x="344.0" y="358.0" type="line" smooth="yes"/>
      <point x="344.0" y="76.0" type="line" smooth="yes"/>
    </contour>
    <contour>
      <point x="288.0" y="724.0" type="line" smooth="yes"/>
      <point x="344.0" y="724.0" type="line" smooth="yes"/>
      <point x="344.0" y="442.0" type="line" smooth="yes"/>
      <point x="316.0" y="414.0" type="line" smooth="yes"/>
      <point x="288.0" y="442.0" type="line" smooth="yes"/>
    </contour>
    <contour>
      <point x="144.0" y="28.0" type="line" smooth="yes"/>
      <point x="172.0" y="56.0" type="line" smooth="yes"/>
      <point x="306.0" y="56.0" type="line" smooth="yes"/>
      <point x="306.0" y="0.0" type="line" smooth="yes"/>
      <point x="172.0" y="0.0" type="line" smooth="yes"/>
    </contour>
    <contour>
      <point x="144.0" y="772.0" type="line" smooth="yes"/>
      <point x="172.0" y="800.0" type="line" smooth="yes"/>
      <point x="306.0" y="800.0" type="line" smooth="yes"/>
      <point x="306.0" y="744.0" type="line" smooth="yes"/>
      <point x="172.0" y="744.0" type="line" smooth="yes"/>
    </contour>
  </outline>
</glyph>
<glyph name="grave" format="2">
  <advance width="633"/>
  <unicode hex="0060"/>
  <outline>
    <contour>
      <point x="178.0" y="724.0" type="line" smooth="yes"/>
      <point x="188.0" y="724.0" type="line" smooth="yes"/>
      <point x="268.0" y="555.0" type="line" smooth="yes"/>
      <point x="268.0" y="448.0" type="line" smooth="yes"/>
      <point x="258.0" y="448.0" type="line" smooth="yes"/>
      <point x="178.0" y="617.0" type="line" smooth="yes"/>
    </contour>
  </outline>
</glyph>
<glyph name="e" format="2">
  <advance width="583"/>
  <unicode hex="0065"/>
  <outline>
    <contour>
      <point x="463.0" y="28.0" type="line" smooth="yes"/>
      <point x="435.0" y="0.0" type="line" smooth="yes"/>
      <point x="301.0" y="0.0" type="line" smooth="yes"/>
      <point x="301.0" y="56.0" type="line" smooth="yes"/>
      <point x="435.0" y="56.0" type="line" smooth="yes"/>
    </contour>
    <contour>
      <point x="154.0" y="76.0" type="line" smooth="yes"/>
      <point x="154.0" y="183.0" type="line" smooth="yes"/>
      <point x="234.0" y="352.0" type="line" smooth="yes"/>
      <point x="244.0" y="352.0" type="line" smooth="yes"/>
      <point x="244.0" y="245.0" type="line" smooth="yes"/>
      <point x="164.0" y="76.0" type="line" smooth="yes"/>
    </contour>
    <contour>
      <point x="120.0" y="400.0" type="line" smooth="yes"/>
      <point x="148.0" y="428.0" type="line" smooth="yes"/>
      <point x="250.0" y="428.0" type="line" smooth="yes"/>
      <point x="278.0" y="400.0" type="line" smooth="yes"/>
      <point x="250.0" y="372.0" type="line" smooth="yes"/>
      <point x="148.0" y="372.0" type="line" smooth="yes"/>
    </contour>
    <contour>
      <point x="106.0" y="42.0" type="line" smooth="yes"/>
      <point x="78.0" y="70.0" type="line" smooth="yes"/>
      <point x="78.0" y="358.0" type="line" smooth="yes"/>
      <point x="106.0" y="386.0" type="line" smooth="yes"/>
      <point x="134.0" y="358.0" type="line" smooth="yes"/>
      <point x="134.0" y="70.0" type="line" smooth="yes"/>
    </contour>
    <contour>
      <point x="120.0" y="28.0" type="line" smooth="yes"/>
      <point x="148.0" y="56.0" type="line" smooth="yes"/>
      <point x="282.0" y="56.0" type="line" smooth="yes"/>
      <point x="282.0" y="0.0" type="line" smooth="yes"/>
      <point x="148.0" y="0.0" type="line" smooth="yes"/>
    </contour>
  </outline>
</glyph>
<glyph name="f" format="2">
  <advance width="583"/>
  <unicode hex="0066"/>
  <outline>
    <contour>
      <point x="463.0" y="772.0" type="line" smooth="yes"/>
      <point x="435.0" y="744.0" type="line" smooth="yes"/>
      <point x="301.0" y="744.0" type="line" smooth="yes"/>
      <point x="301.0" y="800.0" type="line" smooth="yes"/>
      <point x="435.0" y="800.0" type="line" smooth="yes"/>
    </contour>
    <contour>
      <point x="306.0" y="400.0" type="line" smooth="yes"/>
      <point x="334.0" y="428.0" type="line" smooth="yes"/>
      <point x="436.0" y="428.0" type="line" smooth="yes"/>
      <point x="464.0" y="400.0" type="line" smooth="yes"/>
      <point x="436.0" y="372.0" type="line" smooth="yes"/>
      <point x="334.0" y="372.0" type="line" smooth="yes"/>
    </contour>
    <contour>
      <point x="264.0" y="76.0" type="line" smooth="yes"/>
      <point x="264.0" y="358.0" type="line" smooth="yes"/>
      <point x="292.0" y="386.0" type="line" smooth="yes"/>
      <point x="320.0" y="358.0" type="line" smooth="yes"/>
      <point x="320.0" y="76.0" type="line" smooth="yes"/>
    </contour>
    <contour>
      <point x="264.0" y="724.0" type="line" smooth="yes"/>
      <point x="320.0" y="724.0" type="line" smooth="yes"/>
      <point x="320.0" y="442.0" type="line" smooth="yes"/>
      <point x="292.0" y="414.0" type="line" smooth="yes"/>
      <point x="264.0" y="442.0" type="line" smooth="yes"/>
    </contour>
    <contour>
      <point x="120.0" y="400.0" type="line" smooth="yes"/>
      <point x="148.0" y="428.0" type="line" smooth="yes"/>
      <point x="250.0" y="428.0" type="line" smooth="yes"/>
      <point x="278.0" y="400.0" type="line" smooth="yes"/>
      <point x="250.0" y="372.0" type="line" smooth="yes"/>
      <point x="148.0" y="372.0" type="line" smooth="yes"/>
    </contour>
  </outline>
</glyph>
<glyph name="i" format="2">
  <advance width="633"/>
  <unicode hex="0069"/>
  <outline>
    <contour>
      <point x="288.0" y="76.0" type="line" smooth="yes"/>
      <point x="288.0" y="358.0" type="line" smooth="yes"/>
      <point x="316.0" y="386.0" type="line" smooth="yes"/>
      <point x="344.0" y="358.0" type="line" smooth="yes"/>
      <point x="344.0" y="76.0" type="line" smooth="yes"/>
    </contour>
  </outline>
</glyph>
<glyph name="v" format="2">
  <advance width="633"/>
  <unicode hex="0076"/>
  <outline>
    <contour>
      <point x="178.0" y="76.0" type="line" smooth="yes"/>
      <point x="178.0" y="183.0" type="line" smooth="yes"/>
      <point x="258.0" y="352.0" type="line" smooth="yes"/>
      <point x="268.0" y="352.0" type="line" smooth="yes"/>
      <point x="268.0" y="245.0" type="line" smooth="yes"/>
      <point x="188.0" y="76.0" type="line" smooth="yes"/>
    </contour>
    <contour>
      <point x="130.0" y="42.0" type="line" smooth="yes"/>
      <point x="102.0" y="70.0" type="line" smooth="yes"/>
      <point x="102.0" y="358.0" type="line" smooth="yes"/>
      <point x="130.0" y="386.0" type="line" smooth="yes"/>
      <point x="158.0" y="358.0" type="line" smooth="yes"/>
      <point x="158.0" y="70.0" type="line" smooth="yes"/>
    </contour>
  </outline>
</glyph>
<glyph name="bar" format="2">
  <advance width="633"/>
  <unicode hex="007C"/>
  <outline>
    <contour>
      <point x="288.0" y="76.0" type="line" smooth="yes"/>
      <point x="288.0" y="358.0" type="line" smooth="yes"/>
      <point x="316.0" y="386.0" type="line" smooth="yes"/>
      <point x="344.0" y="358.0" type="line" smooth="yes"/>
      <point x="344.0" y="76.0" type="line" smooth="yes"/>
    </contour>
    <contour>
      <point x="288.0" y="724.0" type="line" smooth="yes"/>
      <point x="344.0" y="724.0" type="line" smooth="yes"/>
      <point x="344.0" y="442.0" type="line" smooth="yes"/>
      <point x="316.0" y="414.0" type="line" smooth="yes"/>
      <point x="288.0" y="442.0" type="line" smooth="yes"/>
    </contour>
  </outline>
</glyph>
<glyph name="plusminus" format="2">
  <advance width="633"/>
  <unicode hex="00B1"/>
  <outline>
    <contour>
      <point x="489.0" y="28.0" type="line" smooth="yes"/>
      <point x="461.0" y="0.0" type="line" smooth="yes"/>
      <point x="327.0" y="0.0" type="line" smooth="yes"/>
      <point x="327.0" y="56.0" type="line" smooth="yes"/>
      <point x="461.0" y="56.0" type="line" smooth="yes"/>
    </contour>
    <contour>
      <point x="330.0" y="400.0" type="line" smooth="yes"/>
      <point x="358.0" y="428.0" type="line" smooth="yes"/>
      <point x="460.0" y="428.0" type="line" smooth="yes"/>
      <point x="488.0" y="400.0" type="line" smooth="yes"/>
      <point x="460.0" y="372.0" type="line" smooth="yes"/>
      <point x="358.0" y="372.0" type="line" smooth="yes"/>
    </contour>
    <contour>
      <point x="288.0" y="76.0" type="line" smooth="yes"/>
      <point x="288.0" y="358.0" type="line" smooth="yes"/>
      <point x="316.0" y="386.0" type="line" smooth="yes"/>
      <point x="344.0" y="358.0" type="line" smooth="yes"/>
      <point x="344.0" y="76.0" type="line" smooth="yes"/>
    </contour>
    <contour>
      <point x="288.0" y="724.0" type="line" smooth="yes"/>
      <point x="344.0" y="724.0" type="line" smooth="yes"/>
      <point x="344.0" y="442.0" type="line" smooth="yes"/>
      <point x="316.0" y="414.0" type="line" smooth="yes"/>
      <point x="288.0" y="442.0" type="line" smooth="yes"/>
    </contour>
    <contour>
      <point x="144.0" y="400.0" type="line" smooth="yes"/>
      <point x="172.0" y="428.0" type="line" smooth="yes"/>
      <point x="274.0" y="428.0" type="line" smooth="yes"/>
      <point x="302.0" y="400.0" type="line" smooth="yes"/>
      <point x="274.0" y="372.0" type="line" smooth="yes"/>
      <point x="172.0" y="372.0" type="line" smooth="yes"/>
    </contour>
    <contour>
      <point x="144.0" y="28.0" type="line" smooth="yes"/>
      <point x="172.0" y="56.0" type="line" smooth="yes"/>
      <point x="306.0" y="56.0" type="line" smooth="yes"/>
      <point x="306.0" y="0.0" type="line" smooth="yes"/>
      <point x="172.0" y="0.0" type="line" smooth="yes"/>
    </contour>
  </outline>
</glyph>
<glyph name="periodcentered" format="2">
  <advance width="633"/>
  <unicode hex="00B7"/>
  <outline>
    <contour>
      <point x="330.0" y="400.0" type="line" smooth="yes"/>
      <point x="358.0" y="428.0" type="line" smooth="yes"/>
      <point x="460.0" y="428.0" type="line" smooth="yes"/>
      <point x="488.0" y="400.0" type="line" smooth="yes"/>
      <point x="460.0" y="372.0" type="line" smooth="yes"/>
      <point x="358.0" y="372.0" type="line" smooth="yes"/>
    </contour>
  </outline>
</glyph>
<glyph name="quotedblleft" format="2">
  <advance width="633"/>
  <unicode hex="201C"/>
  <outline>
    <contour>
      <point x="178.0" y="724.0" type="line" smooth="yes"/>
      <point x="188.0" y="724.0" type="line" smooth="yes"/>
      <point x="268.0" y="555.0" type="line" smooth="yes"/>
      <point x="268.0" y="448.0" type="line" smooth="yes"/>
      <point x="258.0" y="448.0" type="line" smooth="yes"/>
      <point x="178.0" y="617.0" type="line" smooth="yes"/>
    </contour>
    <contour>
      <point x="503.0" y="414.0" type="line" smooth="yes"/>
      <point x="475.0" y="442.0" type="line" smooth="yes"/>
      <point x="475.0" y="730.0" type="line" smooth="yes"/>
      <point x="503.0" y="758.0" type="line" smooth="yes"/>
      <point x="531.0" y="730.0" type="line" smooth="yes"/>
      <point x="531.0" y="442.0" type="line" smooth="yes"/>
    </contour>
  </outline>
</glyph>
<glyph name="ellipsis" format="2">
  <advance width="633"/>
  <unicode hex="2026"/>
  <outline>
    <contour>
      <point x="288.0" y="76.0" type="line" smooth="yes"/>
      <point x="288.0" y="358.0" type="line" smooth="yes"/>
      <point x="316.0" y="386.0" type="line" smooth="yes"/>
      <point x="344.0" y="358.0" type="line" smooth="yes"/>
      <point x="344.0" y="76.0" type="line" smooth="yes"/>
    </contour>
    <contour>
      <point x="130.0" y="42.0" type="line" smooth="yes"/>
      <point x="102.0" y="70.0" type="line" smooth="yes"/>
      <point x="102.0" y="358.0" type="line" smooth="yes"/>
      <point x="130.0" y="386.0" type="line" smooth="yes"/>
      <point x="158.0" y="358.0" type="line" smooth="yes"/>
      <point x="158.0" y="70.0" type="line" smooth="yes"/>
    </contour>
    <contour>
      <point x="503.0" y="42.0" type="line" smooth="yes"/>
      <point x="475.0" y="70.0" type="line" smooth="yes"/>
      <point x="475.0" y="358.0" type="line" smooth="yes"/>
      <point x="503.0" y="386.0" type="line" smooth="yes"/>
      <point x="531.0" y="358.0" type="line" smooth="yes"/>
      <point x="531.0" y="70.0" type="line" smooth="yes"/>
    </contour>
  </outline>
</glyph>
<glyph name="unie653" format="2">
  <advance width="633"/>
  <unicode hex="E653"/>
  <outline>
    <contour>
      <point x="178.0" y="76.0" type="line" smooth="yes"/>
      <point x="178.0" y="183.0" type="line" smooth="yes"/>
      <point x="258.0" y="352.0" type="line" smooth="yes"/>
      <point x="268.0" y="352.0" type="line" smooth="yes"/>
      <point x="268.0" y="245.0" type="line" smooth="yes"/>
      <point x="188.0" y="76.0" type="line" smooth="yes"/>
    </contour>
    <contour>
      <point x="130.0" y="414.0" type="line" smooth="yes"/>
      <point x="102.0" y="442.0" type="line" smooth="yes"/>
      <point x="102.0" y="730.0" type="line" smooth="yes"/>
      <point x="130.0" y="758.0" type="line" smooth="yes"/>
      <point x="158.0" y="730.0" type="line" smooth="yes"/>
      <point x="158.0" y="442.0" type="line" smooth="yes"/>
    </contour>
    <contour>
      <point x="130.0" y="42.0" type="line" smooth="yes"/>
      <point x="102.0" y="70.0" type="line" smooth="yes"/>
      <point x="102.0" y="358.0" type="line" smooth="yes"/>
      <point x="130.0" y="386.0" type="line" smooth="yes"/>
      <point x="158.0" y="358.0" type="line" smooth="yes"/>
      <point x="158.0" y="70.0" type="line" smooth="yes"/>
    </contour>
  </outline>
</glyph>
<glyph name="unie66c" format="2">
  <advance width="633"/>
  <unicode hex="E66C"/>
  <outline>
    <contour>
      <point x="455.0" y="76.0" type="line" smooth="yes"/>
      <point x="445.0" y="76.0" type="line" smooth="yes"/>
      <point x="365.0" y="245.0" type="line" smooth="yes"/>
      <point x="365.0" y="352.0" type="line" smooth="yes"/>
      <point x="375.0" y="352.0" type="line" smooth="yes"/>
      <point x="455.0" y="183.0" type="line" smooth="yes"/>
    </contour>
    <contour>
      <point x="455.0" y="724.0" type="line" smooth="yes"/>
      <point x="455.0" y="617.0" type="line" smooth="yes"/>
      <point x="375.0" y="448.0" type="line" smooth="yes"/>
      <point x="365.0" y="448.0" type="line" smooth="yes"/>
      <point x="365.0" y="555.0" type="line" smooth="yes"/>
      <point x="445.0" y="724.0" type="line" smooth="yes"/>
    </contour>
    <contour>
      <point x="178.0" y="724.0" type="line" smooth="yes"/>
      <point x="188.0" y="724.0" type="line" smooth="yes"/>
      <point x="268.0" y="555.0" type="line" smooth="yes"/>
      <point x="268.0" y="448.0" type="line" smooth="yes"/>
      <point x="258.0" y="448.0" type="line" smooth="yes"/>
      <point x="178.0" y="617.0" type="line" smooth="yes"/>
    </contour>
    <contour>
      <point x="144.0" y="400.0" type="line" smooth="yes"/>
      <point x="172.0" y="428.0" type="line" smooth="yes"/>
      <point x="274.0" y="428.0" type="line" smooth="yes"/>
      <point x="302.0" y="400.0" type="line" smooth="yes"/>
      <point x="274.0" y="372.0" type="line" smooth="yes"/>
      <point x="172.0" y="372.0" type="line" smooth="yes"/>
    </contour>
  </outline>
</glyph>
<glyph name="u10456" format="2">
  <advance width="633"/>
  <unicode hex="10456"/>
  <outline>
    <contour>
      <point x="489.0" y="28.0" type="line" smooth="yes"/>
      <point x="461.0" y="0.0" type="line" smooth="yes"/>
      <point x="327.0" y="0.0" type="line" smooth="yes"/>
      <point x="327.0" y="56.0" type="line" smooth="yes"/>
      <point x="461.0" y="56.0" type="line" smooth="yes"/>
    </contour>
    <contour>
      <point x="288.0" y="76.0" type="line" smooth="yes"/>
      <point x="288.0" y="358.0" type="line" smooth="yes"/>
      <point x="316.0" y="386.0" type="line" smooth="yes"/>
      <point x="344.0" y="358.0" type="line" smooth="yes"/>
      <point x="344.0" y="76.0" type="line" smooth="yes"/>
    </contour>
    <contour>
      <point x="455.0" y="724.0" type="line" smooth="yes"/>
      <point x="455.0" y="617.0" type="line" smooth="yes"/>
      <point x="375.0" y="448.0" type="line" smooth="yes"/>
      <point x="365.0" y="448.0" type="line" smooth="yes"/>
      <point x="365.0" y="555.0" type="line" smooth="yes"/>
      <point x="445.0" y="724.0" type="line" smooth="yes"/>
    </contour>
    <contour>
      <point x="503.0" y="42.0" type="line" smooth="yes"/>
      <point x="475.0" y="70.0" type="line" smooth="yes"/>
      <point x="475.0" y="358.0" type="line" smooth="yes"/>
      <point x="503.0" y="386.0" type="line" smooth="yes"/>
      <point x="531.0" y="358.0" type="line" smooth="yes"/>
      <point x="531.0" y="70.0" type="line" smooth="yes"/>
    </contour>
  </outline>
</glyph>
<glyph name="u10460" format="2">
  <advance width="633"/>
  <unicode hex="10460"/>
  <outline>
    <contour>
      <point x="178.0" y="76.0" type="line" smooth="yes"/>
      <point x="178.0" y="183.0" type="line" smooth="yes"/>
      <point x="258.0" y="352.0" type="line" smooth="yes"/>
      <point x="268.0" y="352.0" type="line" smooth="yes"/>
      <point x="268.0" y="245.0" type="line" smooth="yes"/>
      <point x="188.0" y="76.0" type="line" smooth="yes"/>
    </contour>
    <contour>
      <point x="288.0" y="724.0" type="line" smooth="yes"/>
      <point x="344.0" y="724.0" type="line" smooth="yes"/>
      <point x="344.0" y="442.0" type="line" smooth="yes"/>
      <point x="316.0" y="414.0" type="line" smooth="yes"/>
      <point x="288.0" y="442.0" type="line" smooth="yes"/>
    </contour>
    <contour>
      <point x="130.0" y="414.0" type="line" smooth="yes"/>
      <point x="102.0" y="442.0" type="line" smooth="yes"/>
      <point x="102.0" y="730.0" type="line" smooth="yes"/>
      <point x="130.0" y="758.0" type="line" smooth="yes"/>
      <point x="158.0" y="730.0" type="line" smooth="yes"/>
      <point x="158.0" y="442.0" type="line" smooth="yes"/>
    </contour>
    <contour>
      <point x="144.0" y="772.0" type="line" smooth="yes"/>
      <point x="172.0" y="800.0" type="line" smooth="yes"/>
      <point x="306.0" y="800.0" type="line" smooth="yes"/>
      <point x="306.0" y="744.0" type="line" smooth="yes"/>
      <point x="172.0" y="744.0" type="line" smooth="yes"/>
    </contour>
  </outline>
</glyph>
<glyph name="u1046c" format="2">
  <advance width="633"/>
  <unicode hex="1046C"/>
  <outline>
    <contour>
      <point x="489.0" y="28.0" type="line" smooth="yes"/>
      <point x="461.0" y="0.0" type="line" smooth="yes"/>
      <point x="327.0" y="0.0" type="line" smooth="yes"/>
      <point x="327.0" y="56.0" type="line" smooth="yes"/>
      <point x="461.0" y="56.0" type="line" smooth="yes"/>
    </contour>
    <contour>
      <point x="288.0" y="76.0" type="line" smooth="yes"/>
      <point x="288.0" y="358.0" type="line" smooth="yes"/>
      <point x="316.0" y="386.0" type="line" smooth="yes"/>
      <point x="344.0" y="358.0" type="line" smooth="yes"/>
      <point x="344.0" y="76.0" type="line" smooth="yes"/>
    </contour>
    <contour>
      <point x="455.0" y="724.0" type="line" smooth="yes"/>
      <point x="455.0" y="617.0" type="line" smooth="yes"/>
      <point x="375.0" y="448.0" type="line" smooth="yes"/>
      <point x="365.0" y="448.0" type="line" smooth="yes"/>
      <point x="365.0" y="555.0" type="line" smooth="yes"/>
      <point x="445.0" y="724.0" type="line" smooth="yes"/>
    </contour>
    <contour>
      <point x="144.0" y="400.0" type="line" smooth="yes"/>
      <point x="172.0" y="428.0" type="line" smooth="yes"/>
      <point x="274.0" y="428.0" type="line" smooth="yes"/>
      <point x="302.0" y="400.0" type="line" smooth="yes"/>
      <point x="274.0" y="372.0" type="line" smooth="yes"/>
      <point x="172.0" y="372.0" type="line" smooth="yes"/>
    </contour>
  </outline>
</glyph>
<glyph name="u1046d" format="2">
  <advance width="633"/>
  <unicode hex="1046D"/>
  <outline>
    <contour>
      <point x="489.0" y="772.0" type="line" smooth="yes"/>
      <point x="461.0" y="744.0" type="line" smooth="yes"/>
      <point x="327.0" y="744.0" type="line" smooth="yes"/>
      <point x="327.0" y="800.0" type="line" smooth="yes"/>
      <point x="461.0" y="800.0" type="line" smooth="yes"/>
    </contour>
    <contour>
      <point x="178.0" y="76.0" type="line" smooth="yes"/>
      <point x="178.0" y="183.0" type="line" smooth="yes"/>
      <point x="258.0" y="352.0" type="line" smooth="yes"/>
      <point x="268.0" y="352.0" type="line" smooth="yes"/>
      <point x="268.0" y="245.0" type="line" smooth="yes"/>
      <point x="188.0" y="76.0" type="line" smooth="yes"/>
    </contour>
    <contour>
      <point x="144.0" y="400.0" type="line" smooth="yes"/>
      <point x="172.0" y="428.0" type="line" smooth="yes"/>
      <point x="274.0" y="428.0" type="line" smooth="yes"/>
      <point x="302.0" y="400.0" type="line" smooth="yes"/>
      <point x="274.0" y="372.0" type="line" smooth="yes"/>
      <point x="172.0" y="372.0" type="line" smooth="yes"/>
    </contour>
    <contour>
      <point x="130.0" y="414.0" type="line" smooth="yes"/>
      <point x="102.0" y="442.0" type="line" smooth="yes"/>
      <point x="102.0" y="730.0" type="line" smooth="yes"/>
      <point x="130.0" y="758.0" type="line" smooth="yes"/>
      <point x="158.0" y="730.0" type="line" smooth="yes"/>
      <point x="158.0" y="442.0" type="line" smooth="yes"/>
    </contour>
    <contour>
      <point x="144.0" y="772.0" type="line" smooth="yes"/>
      <point x="172.0" y="800.0" type="line" smooth="yes"/>
      <point x="306.0" y="800.0" type="line" smooth="yes"/>
      <point x="306.0" y="744.0" type="line" smooth="yes"/>
      <point x="172.0" y="744.0" type="line" smooth="yes"/>
    </contour>
  </outline>
</glyph>
<glyph name=".notdef" format="2">
  <advance width="600"/>
  <outline>
    <contour>
      <point x="156.0" y="56.0" type="line" smooth="yes"/>
      <point x="444.0" y="56.0" type="line" smooth="yes"/>
      <point x="444.0" y="744.0" type="line" smooth="yes"/>
      <point x="156.0" y="744.0" type="line" smooth="yes"/>
    </contour>
    <contour>
      <point x="100.0" y="0.0" type="line" smooth="yes"/>
      <point x="100.0" y="800.0" type="line" smooth="yes"/>
      <point x="500.0" y="800.0" type="line" smooth="yes"/>
      <point x="500.0" y="0.0" type="line" smooth="yes"/>
    </contour>
  </outline>
</glyph>
<glyph name="segment-h" format="2">
  <outline>
    <contour>
      <point x="176.0" y="724.0" type="line" smooth="yes"/>
      <point x="186.0" y="724.0" type="line" smooth="yes"/>
      <point x="252.0" y="563.0" type="line" smooth="yes"/>
      <point x="252.0" y="448.0" type="line" smooth="yes"/>
      <point x="242.0" y="448.0" type="line" smooth="yes"/>
      <point x="176.0" y="609.0" type="line" smooth="yes"/>
    </contour>
  </outline>
</glyph>
<glyph name="segment_c" format="2">
  <outline>
    <contour>
      <point x="503.0" y="42.0" type="line" smooth="yes"/>
      <point x="475.0" y="70.0" type="line" smooth="yes"/>
      <point x="475.0" y="358.0" type="line" smooth="yes"/>
      <point x="503.0" y="386.0" type="line" smooth="yes"/>
      <point x="531.0" y="358.0" type="line" smooth="yes"/>
      <point x="531.0" y="70.0" type="line" smooth="yes"/>
    </contour>
  </outline>
</glyph>
<glyph name="segment_d" format="2">
  <outline>
    <contour>
      <point x="142.0" y="28.0" type="line" smooth="yes"/>
      <point x="170.0" y="56.0" type="line" smooth="yes"/>
      <point x="290.0" y="56.0" type="line" smooth="yes"/>
      <point x="290.0" y="0.0" type="line" smooth="yes"/>
      <point x="170.0" y="0.0" type="line" smooth="yes"/>
    </contour>
  </outline>
</glyph>
<glyph name="segment_k" format="2">
  <advance height="76" width="176"/>
  <outline>
    <contour>
      <point x="176.0" y="76.0" type="line" smooth="yes"/>
      <point x="176.0" y="191.0" type="line" smooth="yes"/>
      <point x="242.0" y="352.0" type="line" smooth="yes"/>
      <point x="252.0" y="352.0" type="line" smooth="yes"/>
      <point x="252.0" y="237.0" type="line" smooth="yes"/>
      <point x="186.0" y="76.0" type="line" smooth="yes"/>
    </contour>
  </outline>
</glyph>
<glyph name="segment_l" format="2">
  <outline>
    <contour>
      <point x="272.0" y="76.0" type="line" smooth="yes"/>
      <point x="272.0" y="358.0" type="line" smooth="yes"/>
      <point x="300.0" y="386.0" type="line" smooth="yes"/>
      <point x="328.0" y="358.0" type="line" smooth="yes"/>
      <point x="328.0" y="76.0" type="line" smooth="yes"/>
    </contour>
  </outline>
</glyph>
<glyph name="segment_m" format="2">
  <outline>
    <contour>
      <point x="424.0" y="76.0" type="line" smooth="yes"/>
      <point x="414.0" y="76.0" type="line" smooth="yes"/>
      <point x="348.0" y="237.0" type="line" smooth="yes"/>
      <point x="348.0" y="352.0" type="line" smooth="yes"/>
      <point x="358.0" y="352.0" type="line" smooth="yes"/>
      <point x="424.0" y="191.0" type="line" smooth="yes"/>
    </contour>
  </outline>
</glyph>
<glyph name="segment_r" format="2">
  <advance width="600"/>
  <outline>
    <contour>
      <point x="565.0" y="0.0" type="curve" smooth="yes"/>
      <point x="565.0" y="19.0"/>
      <point x="581.0" y="35.0"/>
      <point x="600.0" y="35.0" type="curve" smooth="yes"/>
      <point x="619.0" y="35.0"/>
      <point x="635.0" y="19.0"/>
      <point x="635.0" y="0.0" type="curve" smooth="yes"/>
      <point x="635.0" y="-19.0"/>
      <point x="619.0" y="-35.0"/>
      <point x="600.0" y="-35.0" type="curve" smooth="yes"/>
      <point x="581.0" y="-35.0"/>
      <point x="565.0" y="-19.0"/>
    </contour>
  </outline>
</glyph>
